<!DOCTYPE svg PUBLIC "-//W3C//DTD SVG 20010904//EN" "http://www.w3.org/TR/2001/REC-SVG-20010904/DTD/svg10.dtd">
<svg version="1.0" xmlns="http://www.w3.org/2000/svg" width="586px" height="371px" viewBox="0 0 5860 3710" preserveAspectRatio="xMidYMid meet">
<g id="layer101" fill="#fd026a" stroke="none">
 <path d="M3115 3607 c-124 -24 -261 -128 -318 -240 -56 -112 -57 -123 -57 -1034 0 -831 -1 -852 -33 -933 -55 -142 -169 -255 -307 -303 -78 -27 -256 -32 -325 -9 -193 66 -324 221 -362 427 -7 38 -7 38 -10 10 -10 -89 -38 -238 -53 -280 -4 -11 -20 -60 -35 -109 -38 -118 -128 -301 -200 -406 -55 -80 -70 -100 -137 -183 l-27 -34 73 -61 c41 -34 78 -62 84 -62 5 0 15 -7 22 -14 6 -8 28 -20 48 -27 20 -6 53 -25 73 -40 20 -16 42 -29 48 -29 7 0 24 -8 38 -17 52 -34 228 -89 332 -104 35 -5 73 -11 84 -15 27 -8 354 -7 368 2 6 3 41 10 78 15 63 7 184 43 256 74 17 7 55 23 85 36 30 12 67 31 82 41 14 10 29 18 32 18 14 0 216 153 273 207 66 61 203 221 203 236 0 4 11 23 24 40 43 58 73 119 135 272 23 58 35 97 47 160 8 39 19 95 26 125 7 36 12 265 15 659 l4 605 -23 -20 c-23 -19 -23 -19 0 8 l24 26 -5 289 c-5 353 -15 397 -112 509 -73 85 -169 142 -269 160 -90 16 -108 16 -181 1z"/>
 </g>
<g id="layer102" fill="#a625b9" stroke="none">
 <path d="M5070 3606 c-163 -36 -303 -173 -349 -341 -7 -27 -11 -300 -11 -870 -1 -932 -1 -933 -67 -1056 -131 -244 -426 -337 -681 -213 -129 62 -246 208 -267 334 -8 45 -8 45 -16 15 -5 -16 -13 -59 -19 -95 -22 -145 -39 -216 -71 -295 -59 -147 -89 -208 -133 -270 -12 -16 -26 -40 -33 -52 -14 -27 -163 -201 -194 -227 l-22 -19 34 -29 c206 -176 439 -286 703 -335 123 -22 359 -22 491 0 358 60 687 262 918 562 103 134 159 245 221 431 65 199 66 220 66 1202 0 850 -1 882 -20 944 -50 161 -195 289 -361 317 -79 13 -117 13 -189 -3z"/>
 </g>
<g id="layer103" fill="#fda21a" stroke="none">
 <path d="M1155 3612 c-2 -2 -23 -8 -46 -13 -105 -24 -229 -131 -287 -248 l-37 -75 -5 -850 c-6 -920 -2 -853 -58 -1006 -50 -139 -190 -319 -260 -335 -68 -14 -188 -127 -234 -220 -40 -81 -51 -136 -46 -239 3 -84 8 -102 41 -167 49 -99 105 -161 185 -206 154 -86 309 -86 489 0 61 29 168 97 212 133 36 31 198 195 222 226 118 151 232 362 284 524 15 49 32 98 36 109 4 11 10 36 14 55 4 19 14 67 23 105 13 59 16 202 19 919 2 530 0 874 -6 913 -13 85 -54 164 -124 239 -86 92 -190 136 -330 138 -48 1 -90 0 -92 -2z"/>
 </g>

</svg>