<?xml version="1.0" encoding="iso-8859-1"?>
<!-- Generator: Adobe Illustrator 19.0.0, SVG Export Plug-In . SVG Version: 6.00 Build 0)  -->
<svg version="1.1" id="Capa_1" xmlns="http://www.w3.org/2000/svg" xmlns:xlink="http://www.w3.org/1999/xlink" x="0px" y="0px"
	 viewBox="0 0 512 512" style="enable-background:new 0 0 512 512;" xml:space="preserve">
<path style="fill:#FF5A59;" d="M406.373,512H105.627l5.069-36.575l20.718-149.516l2.357-17.04
	c4.004-28.903,28.716-50.43,57.895-50.43h128.669c29.179,0,53.891,21.527,57.895,50.43l2.357,17.04l20.718,149.516L406.373,512z"/>
<path style="fill:#2BB4F3;" d="M430.129,445.536c-4.891,14.21-15.295,24.712-28.824,29.889c-6.134,2.347-12.918,3.599-20.127,3.599
	h-31.112v-42.403h31.112c7.169,0,8.313-3.314,8.865-4.911c2.14-6.213,0.631-19.447-10.058-37.917
	c-7.218-12.474-20.669-30.826-45.421-53.507V512H177.436V340.287c-24.752,22.681-38.202,41.032-45.421,53.507
	c-10.69,18.47-12.198,31.704-10.058,37.917c0.552,1.597,1.696,4.911,8.865,4.911h31.112v42.403h-31.112
	c-7.209,0-13.993-1.252-20.127-3.599c-13.53-5.177-23.933-15.68-28.824-29.889c-4.901-14.22-6.548-38.42,13.441-72.973
	c8.836-15.275,20.906-30.866,36.102-46.653c10.068-10.482,21.527-21.044,34.307-31.655c7.435-6.163,16.794-9.555,26.448-9.555
	h127.663c9.654,0,19.012,3.392,26.448,9.555c12.78,10.61,24.239,21.172,34.307,31.655c15.196,15.788,27.266,31.378,36.102,46.653
	C436.677,407.116,435.03,431.315,430.129,445.536z"/>
<g>
	<path style="fill:#1687C4;" d="M416.688,372.563c-8.836-15.275-20.906-30.866-36.102-46.653
		c-10.068-10.482-21.527-21.044-34.307-31.654c-7.435-6.163-16.794-9.556-26.448-9.556h-16.215c9.005,0,17.734,3.392,24.669,9.556
		c11.921,10.61,22.609,21.172,32,31.654c14.174,15.788,25.433,31.378,33.674,46.653c18.644,34.553,17.108,58.753,12.537,72.973
		c-4.562,14.21-14.266,24.712-26.886,29.889c-5.721,2.347-12.049,3.599-18.773,3.599h20.34c7.209,0,13.993-1.253,20.127-3.599
		c13.53-5.177,23.933-15.68,28.824-29.889C435.03,431.315,436.677,407.116,416.688,372.563z"/>
	<path style="fill:#1687C4;" d="M331.818,479.024v-42.403h2.746v-96.334c-4.96-5.701-10.658-11.784-17.205-18.216V512h17.205
		v-32.976H331.818z"/>
</g>
<path style="fill:#FF5A59;" d="M171.111,284.703l16.273,20.336c3.47,4.337,8.724,6.861,14.278,6.861H256h54.338
	c5.554,0,10.808-2.525,14.278-6.861l16.273-20.336v-9.368H171.111V284.703z"/>
<path style="fill:#F2A077;" d="M225.238,227.526v60.107c0,16.989,13.773,30.762,30.762,30.762l0,0
	c16.989,0,30.762-13.773,30.762-30.762v-60.107H225.238z"/>
<path style="fill:#F9DC6A;" d="M152.615,68.148v92.959h206.77V60.009c0-20.453-16.581-37.034-37.034-37.034h-15.035l-1.138-2.344
	C300.05,8.011,287.254,0,273.225,0h-52.463C183.126,0,152.615,30.511,152.615,68.148z"/>
<path style="fill:#E5AC51;" d="M322.351,22.974h-15.035l-1.138-2.344C300.05,8.012,287.254,0,273.225,0h-16.998
	c14.028,0,26.824,8.012,32.952,20.631l1.138,2.344h15.035c20.453,0,37.034,16.581,37.034,37.034v101.099h16.998V60.009
	C359.385,39.555,342.804,22.974,322.351,22.974z"/>
<path style="fill:#FFCCAA;" d="M373.284,157.61v8.863c0,10.346-8.387,18.733-18.733,18.733h-18.45
	c-1.096,21.172-10.392,40.188-24.786,53.902c-14.394,13.705-33.87,22.117-55.315,22.117c-42.891,0-77.919-33.657-80.101-76.019
	h-18.45c-10.346,0-18.733-8.387-18.733-18.733v-8.863c0-10.346,8.387-18.733,18.733-18.733h18.335v-33.49h67.342
	c32.037,0,58.658-23.162,64.022-53.659c0.466-2.647,3.623-3.74,5.616-1.937c14.405,13.03,23.452,31.872,23.452,52.83v36.255h18.335
	C364.897,138.877,373.284,147.264,373.284,157.61z"/>
<path style="fill:#F2A077;" d="M354.551,138.877h-18.335v-36.256c0-20.958-9.047-39.8-23.452-52.829
	c-1.993-1.803-5.151-0.71-5.616,1.937c-0.875,4.972-2.323,9.744-4.259,14.258c6.435,10.705,10.148,23.232,10.148,36.635v36.256
	l-0.115,46.329c-1.096,21.172-10.391,40.187-24.786,53.901c-11.752,11.189-26.892,18.845-43.725,21.281
	c3.784,0.548,7.653,0.837,11.589,0.837c21.446,0,40.921-8.412,55.315-22.117c14.394-13.714,23.69-32.729,24.786-53.901h18.45
	c10.346,0,18.733-8.387,18.733-18.733v-8.863C373.284,147.265,364.897,138.877,354.551,138.877z"/>
<g>
	<path style="fill:#475D6D;" d="M256,215.31c-10.669,0-20.711-4.156-28.276-11.703c-3.826-3.826-6.778-8.281-8.782-13.247
		c-1.55-3.841,0.307-8.212,4.148-9.762c3.841-1.551,8.212,0.307,9.762,4.148c1.246,3.087,3.087,5.861,5.473,8.248
		c4.727,4.715,11.007,7.315,17.676,7.315c10.228,0,19.315-6.114,23.153-15.576c1.558-3.839,5.932-5.685,9.769-4.131
		c3.838,1.557,5.688,5.931,4.131,9.77C286.909,205.521,272.365,215.31,256,215.31z"/>
	<path style="fill:#475D6D;" d="M215.843,151.57c-4.142,0-7.5-3.357-7.5-7.5v-3.876c0-4.143,3.358-7.5,7.5-7.5s7.5,3.357,7.5,7.5
		v3.876C223.343,148.213,219.985,151.57,215.843,151.57z"/>
	<path style="fill:#475D6D;" d="M296.157,151.57c-4.142,0-7.5-3.357-7.5-7.5v-3.876c0-4.143,3.358-7.5,7.5-7.5s7.5,3.357,7.5,7.5
		v3.876C303.657,148.213,300.299,151.57,296.157,151.57z"/>
</g>
<polygon style="fill:#F9DC6A;" points="281.967,359.568 257.314,359.568 254.686,359.568 230.033,359.568 216.885,375.017 
	245.154,421.955 266.846,421.955 295.115,375.017 "/>
<g>
	<path style="fill:#FFCCAA;" d="M339.53,427.621h-9.661c-7.246,0-13.12,5.874-13.12,13.12v33.966c0,7.246,5.874,13.119,13.12,13.119
		h9.661c5.82,0,10.538-4.718,10.538-10.538v-39.129C350.068,432.339,345.35,427.621,339.53,427.621z"/>
	<path style="fill:#FFCCAA;" d="M172.47,427.621h9.661c7.246,0,13.12,5.874,13.12,13.12v33.966c0,7.246-5.874,13.119-13.12,13.119
		h-9.661c-5.82,0-10.538-4.718-10.538-10.538v-39.129C161.932,432.339,166.65,427.621,172.47,427.621z"/>
</g>
<g>
</g>
<g>
</g>
<g>
</g>
<g>
</g>
<g>
</g>
<g>
</g>
<g>
</g>
<g>
</g>
<g>
</g>
<g>
</g>
<g>
</g>
<g>
</g>
<g>
</g>
<g>
</g>
<g>
</g>
</svg>
